<?xml version="1.0" encoding="UTF-8"?>
<svg width="36px" height="36px" viewBox="0 0 36 36" version="1.1" xmlns="http://www.w3.org/2000/svg" xmlns:xlink="http://www.w3.org/1999/xlink">
    <!-- Generator: Sketch 50.2 (55047) - http://www.bohemiancoding.com/sketch -->
    <title>Calendar_white</title>
    <desc>Created with Sketch.</desc>
    <defs>
        <path d="M18.6666667,15.1666667 L15.1666667,15.1666667 C14.525,15.1666667 14,15.6916667 14,16.3333333 L14,19.8333333 C14,20.475 14.525,21 15.1666667,21 L18.6666667,21 C19.3083333,21 19.8333333,20.475 19.8333333,19.8333333 L19.8333333,16.3333333 C19.8333333,15.6916667 19.3083333,15.1666667 18.6666667,15.1666667 Z M18.6666667,3.5 L18.6666667,4.66666667 L9.33333333,4.66666667 L9.33333333,3.5 C9.33333333,2.85833333 8.80833333,2.33333333 8.16666667,2.33333333 C7.525,2.33333333 7,2.85833333 7,3.5 L7,4.66666667 L5.83333333,4.66666667 C4.53833333,4.66666667 3.51166667,5.71666667 3.51166667,7 L3.5,23.3333333 C3.5,24.6166667 4.53833333,25.6666667 5.83333333,25.6666667 L22.1666667,25.6666667 C23.45,25.6666667 24.5,24.6166667 24.5,23.3333333 L24.5,7 C24.5,5.71666667 23.45,4.66666667 22.1666667,4.66666667 L21,4.66666667 L21,3.5 C21,2.85833333 20.475,2.33333333 19.8333333,2.33333333 C19.1916667,2.33333333 18.6666667,2.85833333 18.6666667,3.5 Z M21,23.3333333 L7,23.3333333 C6.35833333,23.3333333 5.83333333,22.8083333 5.83333333,22.1666667 L5.83333333,10.5 L22.1666667,10.5 L22.1666667,22.1666667 C22.1666667,22.8083333 21.6416667,23.3333333 21,23.3333333 Z" id="path-1"></path>
    </defs>
    <g id="Page-1" stroke="none" stroke-width="1" fill="none" fill-rule="evenodd">
        <g id="切图">
            <g id="Tab1Active">
                <g id="Icon-/-Event-/-Rounded" transform="translate(4.000000, 4.000000)">
                    <mask id="mask-2" fill="white">
                        <use xlink:href="#path-1"></use>
                    </mask>
                    <g id="Mask" fill-rule="nonzero"></g>
                    <g id="✱-/-Color-/-Icons-/-White-/-Active" mask="url(#mask-2)" fill="#FFFFFF" fill-rule="evenodd">
                        <rect id="Rectangle-13" x="0" y="0" width="28" height="28"></rect>
                    </g>
                </g>
            </g>
        </g>
    </g>
</svg>