<?xml version="1.0" encoding="UTF-8"?>
<svg width="24px" height="24px" viewBox="0 0 24 24" version="1.1" xmlns="http://www.w3.org/2000/svg" xmlns:xlink="http://www.w3.org/1999/xlink">
    <!-- Generator: Sketch 50.2 (55047) - http://www.bohemiancoding.com/sketch -->
    <title>carInfo</title>
    <desc>Created with Sketch.</desc>
    <defs></defs>
    <g id="Page-1" stroke="none" stroke-width="1" fill="none" fill-rule="evenodd">
        <g id="切图" transform="translate(-93.000000, -66.000000)" fill="#000000" fill-rule="nonzero">
            <g id="car" transform="translate(93.000000, 66.000000)">
                <g id="sports-car" transform="translate(5.000000, 7.000000)">
                    <path d="M14.7436453,3.51590625 C14.671125,3.42743906 14.5629141,3.37580156 14.4493875,3.37580156 L13.0061953,3.37580156 C12.6500484,2.43645469 12.1860703,1.51609219 11.6586844,1.16867813 C9.83428594,-0.0315140625 4.99516875,-0.0315140625 3.17077031,1.16867813 C2.64300469,1.51647188 2.180925,2.43797344 1.82287969,3.37580156 L0.3796875,3.37580156 C0.265021875,3.37580156 0.157190625,3.42743906 0.0854296875,3.51590625 C0.0132890625,3.60399375 -0.0155671875,3.72055781 0.0079734375,3.83256563 L0.2217375,4.86835313 C0.2581875,5.04490781 0.413859375,5.17096406 0.593451562,5.17096406 L1.02097969,5.17096406 C0.608259375,5.64709219 0.408164062,6.24661875 0.40550625,6.846525 C0.402848437,7.587675 0.684196875,8.25744375 1.19867344,8.73129375 C1.20436875,8.73622969 1.21006406,8.73964688 1.21537969,8.74458281 L1.21537969,10.19385 C1.21537969,10.5078516 1.47052969,10.7633813 1.78491094,10.7633813 L3.11609531,10.7633813 C3.43047656,10.7633813 3.68562656,10.5078516 3.68562656,10.19385 L3.68562656,9.61140938 L11.1430687,9.61140938 L11.1430687,10.19385 C11.1430687,10.5078516 11.3982187,10.7633813 11.7126,10.7633813 L13.0437844,10.7633813 C13.3574062,10.7633813 13.6133156,10.5078516 13.6133156,10.19385 L13.6133156,8.77305938 C14.1593062,8.27301094 14.4201516,7.58501719 14.4235687,6.8981625 C14.4258469,6.27775313 14.2166391,5.65620469 13.7796187,5.17020469 L14.2356234,5.17020469 C14.415975,5.17020469 14.5716469,5.04414844 14.6073375,4.86721406 L14.8214812,3.83180625 C14.8435031,3.72055781 14.8157859,3.60475313 14.7436453,3.51590625 Z M3.79611562,2.11979531 C5.25031875,1.16260313 9.57837656,1.16260313 11.0318203,2.11979531 C11.3143078,2.30508281 11.6776687,3.05420625 12.0106547,3.97153125 L2.81804062,3.97153125 C3.15026719,3.05458594 3.51362812,2.30584219 3.79611562,2.11979531 Z M2.0928375,6.9892875 C2.0928375,6.37039688 2.59478437,5.86920938 3.21329531,5.86920938 C3.83256562,5.86920938 4.33375312,6.37039688 4.33375312,6.9892875 C4.33375312,7.60817813 3.83256562,8.10974531 3.21329531,8.10974531 C2.59478437,8.10974531 2.0928375,7.60817813 2.0928375,6.9892875 Z M11.6302078,8.10974531 C11.0116969,8.10974531 10.50975,7.60817813 10.50975,6.9892875 C10.50975,6.37039688 11.0116969,5.86920938 11.6302078,5.86920938 C12.2494781,5.86920938 12.7506656,6.37039688 12.7506656,6.9892875 C12.7506656,7.60817813 12.2487187,8.10974531 11.6302078,8.10974531 Z" id="Shape"></path>
                </g>
            </g>
        </g>
    </g>
</svg>