<?xml version="1.0" encoding="UTF-8"?>
<svg width="24px" height="24px" viewBox="0 0 24 24" version="1.1" xmlns="http://www.w3.org/2000/svg" xmlns:xlink="http://www.w3.org/1999/xlink">
    <!-- Generator: Sketch 50.2 (55047) - http://www.bohemiancoding.com/sketch -->
    <title>cart</title>
    <desc>Created with Sketch.</desc>
    <defs>
        <path d="M6,13.5 C5.175,13.5 4.5075,14.175 4.5075,15 C4.5075,15.825 5.175,16.5 6,16.5 C6.825,16.5 7.5,15.825 7.5,15 C7.5,14.175 6.825,13.5 6,13.5 Z M1.5,2.25 C1.5,2.6625 1.8375,3 2.25,3 L3,3 L5.7,8.6925 L4.6875,10.5225 C4.14,11.5275 4.86,12.75 6,12.75 L14.25,12.75 C14.6625,12.75 15,12.4125 15,12 C15,11.5875 14.6625,11.25 14.25,11.25 L6,11.25 L6.825,9.75 L12.4125,9.75 C12.975,9.75 13.47,9.4425 13.725,8.9775 L16.41,4.11 C16.6875,3.615 16.3275,3 15.7575,3 L4.6575,3 L4.155,1.9275 C4.035,1.665 3.765,1.5 3.48,1.5 L2.25,1.5 C1.8375,1.5 1.5,1.8375 1.5,2.25 Z M13.5,13.5 C12.675,13.5 12.0075,14.175 12.0075,15 C12.0075,15.825 12.675,16.5 13.5,16.5 C14.325,16.5 15,15.825 15,15 C15,14.175 14.325,13.5 13.5,13.5 Z" id="path-1"></path>
    </defs>
    <g id="Page-1" stroke="none" stroke-width="1" fill="none" fill-rule="evenodd">
        <g id="切图" transform="translate(-129.000000, -66.000000)">
            <g id="cart" transform="translate(129.000000, 66.000000)">
                <g id="Icon-/-Shopping-Cart-/-Rounded" transform="translate(3.000000, 3.000000)">
                    <mask id="mask-2" fill="white">
                        <use xlink:href="#path-1"></use>
                    </mask>
                    <g id="Mask" fill-rule="nonzero"></g>
                    <g id="✱-/-Color-/-Icons-/-Black-/-Active" mask="url(#mask-2)" fill="#000000" fill-opacity="0.87" fill-rule="evenodd">
                        <rect id="Rectangle-13" x="0" y="0" width="18" height="18"></rect>
                    </g>
                </g>
            </g>
        </g>
    </g>
</svg>