<?xml version="1.0" encoding="UTF-8"?>
<svg width="24px" height="24px" viewBox="0 0 24 24" version="1.1" xmlns="http://www.w3.org/2000/svg" xmlns:xlink="http://www.w3.org/1999/xlink">
    <!-- Generator: Sketch 50.2 (55047) - http://www.bohemiancoding.com/sketch -->
    <title>eye_black</title>
    <desc>Created with Sketch.</desc>
    <defs>
        <path d="M9,3.75 C5.25,3.75 2.0475,6.0825 0.75,9.375 C2.0475,12.6675 5.25,15 9,15 C12.75,15 15.9525,12.6675 17.25,9.375 C15.9525,6.0825 12.75,3.75 9,3.75 Z M9,13.125 C6.93,13.125 5.25,11.445 5.25,9.375 C5.25,7.305 6.93,5.625 9,5.625 C11.07,5.625 12.75,7.305 12.75,9.375 C12.75,11.445 11.07,13.125 9,13.125 Z M9,7.125 C7.755,7.125 6.75,8.13 6.75,9.375 C6.75,10.62 7.755,11.625 9,11.625 C10.245,11.625 11.25,10.62 11.25,9.375 C11.25,8.13 10.245,7.125 9,7.125 Z" id="path-1"></path>
    </defs>
    <g id="Page-1" stroke="none" stroke-width="1" fill="none" fill-rule="evenodd">
        <g id="切图" transform="translate(-201.000000, -66.000000)">
            <g id="eye" transform="translate(201.000000, 66.000000)">
                <g id="Icon-/-Visibility-/-Rounded" transform="translate(3.000000, 3.000000)">
                    <mask id="mask-2" fill="white">
                        <use xlink:href="#path-1"></use>
                    </mask>
                    <g id="Mask" fill-rule="nonzero"></g>
                    <g id="✱-/-Color-/-Icons-/-Selected-/-On-Secondary-/-Active--" mask="url(#mask-2)" fill="#000000" fill-opacity="0.87" fill-rule="evenodd">
                        <rect id="Rectangle-3" x="0" y="0" width="18" height="18"></rect>
                    </g>
                </g>
            </g>
        </g>
    </g>
</svg>