<?xml version="1.0" encoding="UTF-8"?>
<svg width="36px" height="36px" viewBox="0 0 36 36" version="1.1" xmlns="http://www.w3.org/2000/svg" xmlns:xlink="http://www.w3.org/1999/xlink">
    <!-- Generator: Sketch 50.2 (55047) - http://www.bohemiancoding.com/sketch -->
    <title>Eye_white</title>
    <desc>Created with Sketch.</desc>
    <defs>
        <path d="M14,5.83333333 C8.16666667,5.83333333 3.185,9.46166667 1.16666667,14.5833333 C3.185,19.705 8.16666667,23.3333333 14,23.3333333 C19.8333333,23.3333333 24.815,19.705 26.8333333,14.5833333 C24.815,9.46166667 19.8333333,5.83333333 14,5.83333333 Z M14,20.4166667 C10.78,20.4166667 8.16666667,17.8033333 8.16666667,14.5833333 C8.16666667,11.3633333 10.78,8.75 14,8.75 C17.22,8.75 19.8333333,11.3633333 19.8333333,14.5833333 C19.8333333,17.8033333 17.22,20.4166667 14,20.4166667 Z M14,11.0833333 C12.0633333,11.0833333 10.5,12.6466667 10.5,14.5833333 C10.5,16.52 12.0633333,18.0833333 14,18.0833333 C15.9366667,18.0833333 17.5,16.52 17.5,14.5833333 C17.5,12.6466667 15.9366667,11.0833333 14,11.0833333 Z" id="path-1"></path>
    </defs>
    <g id="Page-1" stroke="none" stroke-width="1" fill="none" fill-rule="evenodd">
        <g id="切图" transform="translate(-82.000000, 0.000000)">
            <g id="Tab2Active" transform="translate(82.000000, 0.000000)">
                <g id="Icon-/-Visibility-/-Filled" transform="translate(4.000000, 4.000000)">
                    <mask id="mask-2" fill="white">
                        <use xlink:href="#path-1"></use>
                    </mask>
                    <g id="Mask" fill-rule="nonzero"></g>
                    <g id="✱-/-Color-/-Icons-/-White-/-Active" mask="url(#mask-2)" fill="#FFFFFF" fill-rule="evenodd">
                        <rect id="Rectangle-13" x="0" y="0" width="28" height="28"></rect>
                    </g>
                </g>
            </g>
        </g>
    </g>
</svg>