<?xml version="1.0" encoding="UTF-8"?>
<svg width="24px" height="24px" viewBox="0 0 24 24" version="1.1" xmlns="http://www.w3.org/2000/svg" xmlns:xlink="http://www.w3.org/1999/xlink">
    <!-- Generator: Sketch 50.2 (55047) - http://www.bohemiancoding.com/sketch -->
    <title>money</title>
    <desc>Created with Sketch.</desc>
    <defs>
        <path d="M8.4915,0 C3.7995,0 0,3.808 0,8.5 C0,13.192 3.7995,17 8.4915,17 C13.192,17 17,13.192 17,8.5 C17,3.808 13.192,0 8.4915,0 Z M8.5,15.3 C4.743,15.3 1.7,12.257 1.7,8.5 C1.7,4.743 4.743,1.7 8.5,1.7 C12.257,1.7 15.3,4.743 15.3,8.5 C15.3,12.257 12.257,15.3 8.5,15.3 Z" id="path-1"></path>
    </defs>
    <g id="Page-1" stroke="none" stroke-width="1" fill="none" fill-rule="evenodd">
        <g id="切图" transform="translate(-165.000000, -67.000000)">
            <g id="money" transform="translate(165.000000, 67.000000)">
                <g id="Icon-/-Access-Time-/-Rounded" transform="translate(4.000000, 3.000000)">
                    <text id="¥" font-family="ArialRoundedMTBold, Arial Rounded MT Bold" font-size="11" font-weight="normal" fill="#111612">
                        <tspan x="5.1" y="12.425">¥</tspan>
                    </text>
                    <mask id="mask-2" fill="white">
                        <use xlink:href="#path-1"></use>
                    </mask>
                    <use id="icon/device/access_time_24px" fill="#111612" fill-rule="nonzero" xlink:href="#path-1"></use>
                    <g id="↳-Icon-Color" mask="url(#mask-2)" fill="#000000" fill-opacity="0.54">
                        <g transform="translate(-1.700000, -1.700000)" id="Rectangle">
                            <rect x="0" y="0" width="20.4" height="20.4"></rect>
                        </g>
                    </g>
                </g>
            </g>
        </g>
    </g>
</svg>