<?xml version="1.0" encoding="UTF-8"?>
<svg width="32px" height="32px" viewBox="0 0 32 32" version="1.1" xmlns="http://www.w3.org/2000/svg" xmlns:xlink="http://www.w3.org/1999/xlink">
    <!-- Generator: Sketch 50.2 (55047) - http://www.bohemiancoding.com/sketch -->
    <title>MyOrders</title>
    <desc>Created with Sketch.</desc>
    <defs>
        <path d="M22.1666667,4.66666667 L17.29,4.66666667 C16.8,3.31333333 15.5166667,2.33333333 14,2.33333333 C12.4833333,2.33333333 11.2,3.31333333 10.71,4.66666667 L5.83333333,4.66666667 C4.55,4.66666667 3.5,5.71666667 3.5,7 L3.5,23.3333333 C3.5,24.6166667 4.55,25.6666667 5.83333333,25.6666667 L22.1666667,25.6666667 C23.45,25.6666667 24.5,24.6166667 24.5,23.3333333 L24.5,7 C24.5,5.71666667 23.45,4.66666667 22.1666667,4.66666667 Z M14,4.66666667 C14.6416667,4.66666667 15.1666667,5.19166667 15.1666667,5.83333333 C15.1666667,6.475 14.6416667,7 14,7 C13.3583333,7 12.8333333,6.475 12.8333333,5.83333333 C12.8333333,5.19166667 13.3583333,4.66666667 14,4.66666667 Z M14,9.33333333 C15.9366667,9.33333333 17.5,10.8966667 17.5,12.8333333 C17.5,14.77 15.9366667,16.3333333 14,16.3333333 C12.0633333,16.3333333 10.5,14.77 10.5,12.8333333 C10.5,10.8966667 12.0633333,9.33333333 14,9.33333333 Z M21,23.3333333 L7,23.3333333 L7,21.7 C7,19.3666667 11.6666667,18.0833333 14,18.0833333 C16.3333333,18.0833333 21,19.3666667 21,21.7 L21,23.3333333 Z" id="path-1"></path>
    </defs>
    <g id="Page-1" stroke="none" stroke-width="1" fill="none" fill-rule="evenodd">
        <g id="切图" transform="translate(-125.000000, -147.000000)">
            <g id="Group-3" transform="translate(125.000000, 147.000000)">
                <g id="icon/action/assignment_ind_24px" transform="translate(2.000000, 2.000000)">
                    <mask id="mask-2" fill="white">
                        <use xlink:href="#path-1"></use>
                    </mask>
                    <g fill-rule="nonzero"></g>
                    <g id="✱-/-Color-/-Icons-/-Selected-/-On-Secondary-/-Active--" mask="url(#mask-2)" fill="#FAFAFA" fill-rule="evenodd">
                        <rect id="Rectangle-3" x="0" y="0" width="28" height="28"></rect>
                    </g>
                </g>
            </g>
        </g>
    </g>
</svg>