<?xml version="1.0" encoding="UTF-8"?>
<svg width="24px" height="24px" viewBox="0 0 24 24" version="1.1" xmlns="http://www.w3.org/2000/svg" xmlns:xlink="http://www.w3.org/1999/xlink">
    <!-- Generator: Sketch 50.2 (55047) - http://www.bohemiancoding.com/sketch -->
    <title>washingCar</title>
    <desc>Created with Sketch.</desc>
    <defs></defs>
    <g id="Page-1" stroke="none" stroke-width="1" fill="none" fill-rule="evenodd">
        <g id="切图" transform="translate(-4.000000, -66.000000)" fill="#111612" fill-rule="nonzero">
            <g id="washingCar" transform="translate(4.000000, 66.000000)">
                <g id="car-wash-machine" transform="translate(5.000000, 7.000000)">
                    <path d="M10.742388,6.51201823 C10.5920703,5.28751823 9.91677083,4.38964844 9.08098177,4.38964844 L5.37002344,4.38964844 C4.53423438,4.38964844 3.85845052,5.2880026 3.70813281,6.51201823 C3.18016406,6.81402604 2.90221354,7.38922135 2.90221354,8.05782031 C2.90221354,8.47640104 3.01539583,8.85647396 3.22545313,9.16041927 L3.22545313,10.5029453 L4.98801302,10.5029453 L4.98801302,9.83095573 L9.46299219,9.83095573 L9.46299219,10.5029453 L11.2250677,10.5029453 L11.2250677,9.16041927 C11.435125,8.85744271 11.5487917,8.47736979 11.5487917,8.05782031 C11.5487917,7.38873698 11.2698724,6.81402604 10.742388,6.51201823 Z M4.39602604,8.63341927 C4.07811458,8.63341927 3.81994271,8.37670052 3.81994271,8.05782031 C3.81994271,7.7389401 4.07811458,7.48173698 4.39602604,7.48173698 C4.71442188,7.48173698 4.97259375,7.7389401 4.97259375,8.05782031 C4.97259375,8.37670052 4.71442188,8.63341927 4.39602604,8.63341927 Z M4.6021276,6.28420052 C4.48749219,6.28420052 4.38149479,6.29768229 4.27840365,6.31358594 C4.444625,5.51008854 4.8766875,4.91858594 5.37042708,4.91858594 L9.08195052,4.91858594 C9.57472135,4.91858594 10.0067839,5.51008854 10.1734896,6.31358594 C10.1181094,6.30543229 10.0598229,6.30252604 10.0015365,6.29865104 C10.0015365,6.29380729 10.003474,6.28904427 10.003474,6.2846849 C10.003474,5.77649479 9.59014063,5.36316146 9.08146615,5.36316146 C8.57376042,5.36316146 8.16042708,5.77649479 8.16042708,6.2846849 L4.6021276,6.2846849 L4.6021276,6.28420052 Z M8.89942188,8.56980469 L5.55255208,8.56980469 C5.45478906,8.56980469 5.37623958,8.49077083 5.37623958,8.39349219 C5.37623958,8.29669792 5.45527344,8.21766406 5.55255208,8.21766406 L8.89942188,8.21766406 C8.99670052,8.21766406 9.07525,8.29669792 9.07525,8.39349219 C9.07525,8.49085156 8.99621615,8.56980469 8.89942188,8.56980469 Z M8.89942188,8.06548958 L5.55255208,8.06548958 C5.45478906,8.06548958 5.37623958,7.98645573 5.37623958,7.88917708 C5.37623958,7.79189844 5.45527344,7.71286458 5.55255208,7.71286458 L8.89942188,7.71286458 C8.99670052,7.71286458 9.07525,7.79189844 9.07525,7.88917708 C9.07525,7.98645573 8.99621615,8.06548958 8.89942188,8.06548958 Z M8.51264844,6.28420052 C8.51264844,5.97113281 8.76791406,5.71530208 9.08203125,5.71530208 C9.39509896,5.71530208 9.65092969,5.97056771 9.65092969,6.28420052 L8.51264844,6.28420052 Z M10.0549792,8.63341927 C9.73658333,8.63341927 9.47841146,8.37670052 9.47841146,8.05782031 C9.47841146,7.7389401 9.73658333,7.48173698 10.0549792,7.48173698 C10.3728906,7.48173698 10.6310625,7.7389401 10.6310625,8.05782031 C10.6301745,8.37670052 10.3729714,8.63341927 10.0549792,8.63341927 Z" id="Shape"></path>
                    <rect id="Rectangle-path" x="2.90221354" y="0.000888020833" width="8.6464974" height="1"></rect>
                    <g id="Group" transform="translate(0.000000, 0.161458)">
                        <path d="M6.75008854,2.5677526 C6.75008854,2.83028385 6.96248698,3.04365104 7.2255026,3.04365104 C7.48803385,3.04365104 7.70043229,2.83076823 7.70043229,2.5677526 C7.70043229,2.30473698 7.2255026,1.47136979 7.2255026,1.47136979 C7.2255026,1.47136979 6.75008854,2.30522135 6.75008854,2.5677526 Z" id="Shape"></path>
                        <path d="M5.31795312,1.78209635 C5.31795312,2.0446276 5.53035156,2.25751042 5.79385156,2.25751042 C6.05638281,2.25751042 6.26975,2.0446276 6.26975,1.78209635 C6.26975,1.51859635 5.79385156,0.684744792 5.79385156,0.684744792 C5.79385156,0.684744792 5.31795312,1.51811198 5.31795312,1.78209635 Z" id="Shape"></path>
                        <path d="M8.18117448,1.78209635 C8.18117448,2.0446276 8.39357292,2.25751042 8.65707292,2.25751042 C8.91960417,2.25751042 9.13248698,2.0446276 9.13248698,1.78209635 C9.13248698,1.51859635 8.65707292,0.684744792 8.65707292,0.684744792 C8.65707292,0.684744792 8.18117448,1.51811198 8.18117448,1.78209635 Z" id="Shape"></path>
                        <polygon id="Shape" points="14.4510052 4.69254427 14.4510052 3.9868099 13.5107526 3.9868099 13.5107526 0.0162265625 0.940252604 0.0162265625 0.940252604 3.9868099 0 3.9868099 0 4.69254427 0.940252604 4.69254427 0.940252604 4.80524219 0 4.80524219 0 5.50952344 0.940252604 5.50952344 0.940252604 5.62173698 0 5.62173698 0 6.3265026 0.940252604 6.3265026 0.940252604 6.4396849 0 6.4396849 0 7.14436979 0.940252604 7.14436979 0.940252604 7.25666406 0 7.25666406 0 7.96134896 0.940252604 7.96134896 0.940252604 8.07404688 0 8.07404688 0 8.7788125 0.940252604 8.7788125 0.940252604 8.89054167 0 8.89054167 0 9.59579167 0.940252604 9.59579167 0.940252604 9.70897396 0 9.70897396 0 10.4136589 2.23264583 10.4136589 2.23264583 9.70897396 1.29239323 9.70897396 1.29239323 9.59579167 2.23264583 9.59579167 2.23264583 8.89054167 1.29239323 8.89054167 1.29239323 8.7788125 2.23264583 8.7788125 2.23264583 8.07404688 1.29239323 8.07404688 1.29239323 7.96134896 2.23264583 7.96134896 2.23264583 7.25666406 1.29239323 7.25666406 1.29239323 7.14436979 2.23264583 7.14436979 2.23264583 6.4396849 1.29239323 6.4396849 1.29239323 6.3265026 2.23264583 6.3265026 2.23264583 5.62173698 1.29239323 5.62173698 1.29239323 5.50952344 2.23264583 5.50952344 2.23264583 4.80524219 1.29239323 4.80524219 1.29239323 4.69254427 2.23264583 4.69254427 2.23264583 3.9868099 1.29239323 3.9868099 1.29239323 0.368770833 13.1581276 0.368770833 13.1581276 3.9868099 12.2183594 3.9868099 12.2183594 4.69254427 13.1581276 4.69254427 13.1581276 4.80524219 12.2183594 4.80524219 12.2183594 5.50952344 13.1581276 5.50952344 13.1581276 5.62173698 12.2183594 5.62173698 12.2183594 6.3265026 13.1581276 6.3265026 13.1581276 6.4396849 12.2183594 6.4396849 12.2183594 7.14436979 13.1581276 7.14436979 13.1581276 7.25666406 12.2183594 7.25666406 12.2183594 7.96134896 13.1581276 7.96134896 13.1581276 8.07404688 12.2183594 8.07404688 12.2183594 8.7788125 13.1581276 8.7788125 13.1581276 8.89054167 12.2183594 8.89054167 12.2183594 9.59579167 13.1581276 9.59579167 13.1581276 9.70897396 12.2183594 9.70897396 12.2183594 10.4136589 14.4510052 10.4136589 14.4510052 9.70897396 13.5107526 9.70897396 13.5107526 9.59579167 14.4510052 9.59579167 14.4510052 8.89054167 13.5107526 8.89054167 13.5107526 8.7788125 14.4510052 8.7788125 14.4510052 8.07404688 13.5107526 8.07404688 13.5107526 7.96134896 14.4510052 7.96134896 14.4510052 7.25666406 13.5107526 7.25666406 13.5107526 7.14436979 14.4510052 7.14436979 14.4510052 6.4396849 13.5107526 6.4396849 13.5107526 6.3265026 14.4510052 6.3265026 14.4510052 5.62173698 13.5107526 5.62173698 13.5107526 5.50952344 14.4510052 5.50952344 14.4510052 4.80524219 13.5107526 4.80524219 13.5107526 4.69254427"></polygon>
                    </g>
                </g>
            </g>
        </g>
    </g>
</svg>